<?xml version="1.0" encoding="UTF-8" standalone="no"?>
<!DOCTYPE svg PUBLIC "-//W3C//DTD SVG 1.1//EN" "http://www.w3.org/Graphics/SVG/1.1/DTD/svg11.dtd">
<svg width="100%" height="100%" viewBox="0 0 297 618" version="1.1" xmlns="http://www.w3.org/2000/svg" xmlns:xlink="http://www.w3.org/1999/xlink" xml:space="preserve" xmlns:serif="http://www.serif.com/" style="fill-rule:evenodd;clip-rule:evenodd;stroke-linejoin:round;stroke-miterlimit:2;">
    <g>
        <path d="M148.666,614.201L148.815,614.195C151.953,614.046 154.835,612.376 156.521,609.702L174.887,580.576L179.132,573.847C180.046,572.397 180.558,570.729 180.615,569.016L184.778,443.221L232.117,574.983C232.673,576.53 233.614,577.909 234.852,578.99L272.453,611.824C275.117,614.15 278.839,614.834 282.155,613.606C285.472,612.378 287.851,609.435 288.357,605.935L294.536,563.215C294.713,561.99 294.653,560.743 294.359,559.541L222.641,266.244L222.641,218.665C222.641,213.333 218.319,209.011 212.988,209.011L195.25,209.011L195.25,185.952L265.211,185.952C270.542,185.952 274.865,181.63 274.865,176.298L274.865,101.804C274.865,97.138 271.555,93.246 267.156,92.346C266.527,92.218 265.876,92.15 265.21,92.15L232.497,92.15L232.497,27.309C232.497,21.978 228.175,17.656 222.844,17.656L178.003,17.656C170.431,10.024 159.937,5.299 148.35,5.299C136.762,5.299 126.268,10.024 118.696,17.656L73.855,17.656C68.524,17.656 64.202,21.978 64.202,27.309L64.202,92.15L31.488,92.15C26.157,92.15 21.834,96.472 21.834,101.804L21.834,176.298C21.834,180.964 25.144,184.857 29.543,185.756C30.172,185.885 30.823,185.952 31.489,185.952L101.449,185.952L101.449,209.011L83.715,209.011C78.384,209.011 74.062,213.333 74.062,218.665L74.062,266.223L2.34,559.54C2.156,560.292 2.064,561.061 2.064,561.831C2.064,562.293 2.097,562.756 2.163,563.215L8.342,605.935C8.848,609.435 11.227,612.378 14.544,613.606C17.86,614.834 21.582,614.15 24.246,611.824L61.847,578.99C63.085,577.909 64.026,576.53 64.582,574.983L111.921,443.222L116.084,569.016C116.141,570.729 116.653,572.397 117.568,573.847L140.185,609.703C141.953,612.506 145.036,614.207 148.35,614.207C148.455,614.207 148.561,614.205 148.666,614.201ZM162.278,539.357L161.404,565.761L158.532,570.316L148.351,586.456L135.294,565.76L134.421,539.357L162.278,539.357ZM269.547,539.357L239.833,539.357L249.44,566.096C249.44,566.096 271.788,585.612 271.788,585.612C271.788,585.612 275.159,562.306 275.159,562.306L269.547,539.357ZM27.152,539.357L56.865,539.357L47.258,566.096C47.258,566.096 24.911,585.611 24.911,585.611L21.54,562.306L27.152,539.357ZM264.828,520.054L205.405,277.04L158.005,277.04L158.005,311.6L232.898,520.054L264.828,520.054ZM162.916,520.054L133.782,520.054L129.619,394.267L148.359,342.949L163.323,383.866L167.083,394.148L162.916,520.054ZM91.294,277.04L31.871,520.054L63.801,520.054L96.303,429.592L138.697,311.595L138.697,277.04L91.294,277.04ZM110.004,293.613C115.026,293.613 119.104,297.69 119.104,302.712C119.104,307.734 115.026,311.811 110.004,311.811C104.982,311.811 100.905,307.734 100.905,302.712C100.905,297.69 104.982,293.613 110.004,293.613ZM184.728,293.613C189.75,293.613 193.827,297.69 193.827,302.712C193.827,307.734 189.75,311.811 184.728,311.811C179.706,311.811 175.628,307.734 175.628,302.712C175.628,297.69 179.706,293.613 184.728,293.613ZM203.329,257.733L203.329,228.319L93.37,228.319L93.37,257.733L203.329,257.733ZM120.756,209.011L175.943,209.011L175.943,185.952C175.943,185.952 120.756,185.952 120.756,185.952L120.756,209.011ZM213.19,101.804C213.19,101.804 213.19,36.963 213.19,36.963L190.131,36.963L190.131,131.108C190.131,136.44 185.809,140.762 180.477,140.762L116.222,140.762C110.89,140.762 106.568,136.44 106.568,131.108L106.568,36.963L83.509,36.963L83.509,101.804C83.509,101.849 83.509,101.895 83.508,101.939L83.508,166.645L213.19,166.645L213.19,101.804ZM232.497,111.458L255.556,111.458L255.556,166.645C255.556,166.645 232.497,166.645 232.497,166.645L232.497,111.458ZM41.143,111.458L41.143,166.645L64.201,166.645L64.201,111.458L41.143,111.458ZM125.876,82.3C132.365,86.453 140.078,88.862 148.35,88.862C156.621,88.862 164.335,86.453 170.823,82.3L170.823,121.454C170.823,121.454 125.876,121.454 125.876,121.454L125.876,82.3ZM166.064,33.258L166.064,33.258C161.947,27.995 155.541,24.607 148.35,24.607C141.158,24.607 134.752,27.995 130.635,33.258L130.635,33.258C127.652,37.07 125.876,41.87 125.876,47.081C125.876,59.485 135.946,69.555 148.35,69.555C160.753,69.555 170.823,59.485 170.823,47.081C170.823,41.87 169.047,37.07 166.064,33.258Z" style="fill:white;"/>
    </g>
</svg>
